<?xml version="1.0" encoding="utf-8" ?>
<svg baseProfile="full" height="200.64030543714762" version="1.1" width="289.4593237442896" xmlns="http://www.w3.org/2000/svg" xmlns:ev="http://www.w3.org/2001/xml-events" xmlns:xlink="http://www.w3.org/1999/xlink"><defs /><rect fill="white" height="200.64030543714762" width="289.4593237442896" x="0" y="0" /><path d="M 25.0,168.5647248700261 " fill="rgb(239,2,79)" stroke="rgb(239,2,79)" stroke-width="2" /><path d="M 28.2081458568573,162.73876852542162 " fill="rgb(144,74,136)" stroke="rgb(144,74,136)" stroke-width="2" /><path d="M +28.2081458568573,162.73876852542162 L 28.571397960186005,163.715915389359 " fill="rgb(144,74,136)" stroke="rgb(144,74,136)" stroke-width="2" /><path d="M 34.468898475170135,165.1583702042699 " fill="rgb(77,57,60)" stroke="rgb(77,57,60)" stroke-width="2" /><path d="M +34.468898475170135,165.1583702042699 L 35.294837474823,165.59733749181032 " fill="rgb(77,57,60)" stroke="rgb(77,57,60)" stroke-width="2" /><path d="M +35.294837474823,165.59733749181032 L 35.904799818992615,166.27249003201723 " fill="rgb(77,57,60)" stroke="rgb(77,57,60)" stroke-width="2" /><path d="M +35.904799818992615,166.27249003201723 L 36.059152618050575,166.97602201253176 " fill="rgb(77,57,60)" stroke="rgb(77,57,60)" stroke-width="2" /><path d="M +36.059152618050575,166.97602201253176 L 36.24244935810566,168.39404190331697 " fill="rgb(77,57,60)" stroke="rgb(77,57,60)" stroke-width="2" /><path d="M +36.24244935810566,168.39404190331697 L 36.17818623781204,170.57546056061983 " fill="rgb(77,57,60)" stroke="rgb(77,57,60)" stroke-width="2" /><path d="M +36.17818623781204,170.57546056061983 L 36.03855291008949,172.58125770837069 " fill="rgb(77,57,60)" stroke="rgb(77,57,60)" stroke-width="2" /><path d="M +36.03855291008949,172.58125770837069 L 36.406088292598724,174.24108768254519 " fill="rgb(77,57,60)" stroke="rgb(77,57,60)" stroke-width="2" /><path d="M +36.406088292598724,174.24108768254519 L 37.12860256433487,175.18241787701845 " fill="rgb(77,57,60)" stroke="rgb(77,57,60)" stroke-width="2" /><path d="M +37.12860256433487,175.18241787701845 L 37.90932339429855,175.64030543714762 " fill="rgb(77,57,60)" stroke="rgb(77,57,60)" stroke-width="2" /><path d="M +37.90932339429855,175.64030543714762 L 38.66519993543625,175.32544264942408 " fill="rgb(77,57,60)" stroke="rgb(77,57,60)" stroke-width="2" /><path d="M +38.66519993543625,175.32544264942408 L 39.54900914430618,174.48788104206324 " fill="rgb(77,57,60)" stroke="rgb(77,57,60)" stroke-width="2" /><path d="M +39.54900914430618,174.48788104206324 L 39.97915655374527,172.7556512132287 " fill="rgb(77,57,60)" stroke="rgb(77,57,60)" stroke-width="2" /><path d="M +39.97915655374527,172.7556512132287 L 40.632385551929474,170.40166494995356 " fill="rgb(77,57,60)" stroke="rgb(77,57,60)" stroke-width="2" /><path d="M +40.632385551929474,170.40166494995356 L 40.92739790678024,167.0608749166131 " fill="rgb(77,57,60)" stroke="rgb(77,57,60)" stroke-width="2" /><path d="M +40.92739790678024,167.0608749166131 L 41.4765602350235,163.98475597053766 " fill="rgb(77,57,60)" stroke="rgb(77,57,60)" stroke-width="2" /><path d="M +41.4765602350235,163.98475597053766 L 42.028944969177246,160.79226825386286 " fill="rgb(77,57,60)" stroke="rgb(77,57,60)" stroke-width="2" /><path d="M +42.028944969177246,160.79226825386286 L 42.631403267383575,157.739773966372 " fill="rgb(77,57,60)" stroke="rgb(77,57,60)" stroke-width="2" /><path d="M +42.631403267383575,157.739773966372 L 45.03725224733353,157.85016100853682 " fill="rgb(77,57,60)" stroke="rgb(77,57,60)" stroke-width="2" /><path d="M +45.03725224733353,157.85016100853682 L 46.0470307469368,158.11450438946486 " fill="rgb(77,57,60)" stroke="rgb(77,57,60)" stroke-width="2" /><path d="M +46.0470307469368,158.11450438946486 L 46.67401480674744,158.18389905244112 " fill="rgb(77,57,60)" stroke="rgb(77,57,60)" stroke-width="2" /><path d="M +46.67401480674744,158.18389905244112 L 47.08350482583046,158.63564831763506 " fill="rgb(77,57,60)" stroke="rgb(77,57,60)" stroke-width="2" /><path d="M +47.08350482583046,158.63564831763506 L 47.68387606739998,159.8379252627492 " fill="rgb(77,57,60)" stroke="rgb(77,57,60)" stroke-width="2" /><path d="M +47.68387606739998,159.8379252627492 L 47.31650599837303,160.76966703683138 " fill="rgb(77,57,60)" stroke="rgb(77,57,60)" stroke-width="2" /><path d="M +47.31650599837303,160.76966703683138 L 47.47604040801525,162.84552562981844 " fill="rgb(77,57,60)" stroke="rgb(77,57,60)" stroke-width="2" /><path d="M +47.47604040801525,162.84552562981844 L 47.55981184542179,165.31300104409456 " fill="rgb(77,57,60)" stroke="rgb(77,57,60)" stroke-width="2" /><path d="M +47.55981184542179,165.31300104409456 L 47.76770181953907,167.29402590543032 " fill="rgb(77,57,60)" stroke="rgb(77,57,60)" stroke-width="2" /><path d="M +47.76770181953907,167.29402590543032 L 47.715823255479336,168.7844716385007 " fill="rgb(77,57,60)" stroke="rgb(77,57,60)" stroke-width="2" /><path d="M +47.715823255479336,168.7844716385007 L 48.165916703641415,170.08905316144228 " fill="rgb(77,57,60)" stroke="rgb(77,57,60)" stroke-width="2" /><path d="M +48.165916703641415,170.08905316144228 L 48.95802327245474,170.83842170983553 " fill="rgb(77,57,60)" stroke="rgb(77,57,60)" stroke-width="2" /><path d="M +48.95802327245474,170.83842170983553 L 48.91064928844571,170.027452416718 " fill="rgb(77,57,60)" stroke="rgb(77,57,60)" stroke-width="2" /><path d="M +48.91064928844571,170.027452416718 L 49.39274837449193,168.91554910689592 " fill="rgb(77,57,60)" stroke="rgb(77,57,60)" stroke-width="2" /><path d="M +49.39274837449193,168.91554910689592 L 50.44032384827733,166.65693289786577 " fill="rgb(77,57,60)" stroke="rgb(77,57,60)" stroke-width="2" /><path d="M +50.44032384827733,166.65693289786577 L 51.28246267512441,163.80122119933367 " fill="rgb(77,57,60)" stroke="rgb(77,57,60)" stroke-width="2" /><path d="M +51.28246267512441,163.80122119933367 L 52.17832745984197,161.02132684737444 " fill="rgb(77,57,60)" stroke="rgb(77,57,60)" stroke-width="2" /><path d="M +52.17832745984197,161.02132684737444 L 52.95720334723592,158.8623095229268 " fill="rgb(77,57,60)" stroke="rgb(77,57,60)" stroke-width="2" /><path d="M +52.95720334723592,158.8623095229268 L 53.33778037503362,156.63735515624285 " fill="rgb(77,57,60)" stroke="rgb(77,57,60)" stroke-width="2" /><path d="M +53.33778037503362,156.63735515624285 L 53.656561095267534,156.32555032521486 " fill="rgb(77,57,60)" stroke="rgb(77,57,60)" stroke-width="2" /><path d="M +53.656561095267534,156.32555032521486 L 53.41529310122132,155.9581707790494 " fill="rgb(77,57,60)" stroke="rgb(77,57,60)" stroke-width="2" /><path d="M +53.41529310122132,155.9581707790494 L 53.237099815160036,155.51431534439325 " fill="rgb(77,57,60)" stroke="rgb(77,57,60)" stroke-width="2" /><path d="M +53.237099815160036,155.51431534439325 L 53.44277499988675,155.91544372588396 " fill="rgb(77,57,60)" stroke="rgb(77,57,60)" stroke-width="2" /><path d="M +53.44277499988675,155.91544372588396 L 53.287248615175486,156.11358132213354 " fill="rgb(77,57,60)" stroke="rgb(77,57,60)" stroke-width="2" /><path d="M +53.287248615175486,156.11358132213354 L 53.35103373602033,157.4120300039649 " fill="rgb(77,57,60)" stroke="rgb(77,57,60)" stroke-width="2" /><path d="M +53.35103373602033,157.4120300039649 L 53.22120164707303,159.24728228896856 " fill="rgb(77,57,60)" stroke="rgb(77,57,60)" stroke-width="2" /><path d="M +53.22120164707303,159.24728228896856 L 52.776029992848635,160.8118058666587 " fill="rgb(77,57,60)" stroke="rgb(77,57,60)" stroke-width="2" /><path d="M +52.776029992848635,160.8118058666587 L 52.60540825501084,162.88547863811255 " fill="rgb(77,57,60)" stroke="rgb(77,57,60)" stroke-width="2" /><path d="M +52.60540825501084,162.88547863811255 L 53.09926015511155,164.65022888034582 " fill="rgb(77,57,60)" stroke="rgb(77,57,60)" stroke-width="2" /><path d="M +53.09926015511155,164.65022888034582 L 53.590055499225855,165.57040330022573 " fill="rgb(77,57,60)" stroke="rgb(77,57,60)" stroke-width="2" /><path d="M +53.590055499225855,165.57040330022573 L 54.86817232146859,166.258475266397 " fill="rgb(77,57,60)" stroke="rgb(77,57,60)" stroke-width="2" /><path d="M +54.86817232146859,166.258475266397 L 55.75778654590249,166.036928974092 " fill="rgb(77,57,60)" stroke="rgb(77,57,60)" stroke-width="2" /><path d="M +55.75778654590249,166.036928974092 L 56.56997177377343,164.90358742326498 " fill="rgb(77,57,60)" stroke="rgb(77,57,60)" stroke-width="2" /><path d="M +56.56997177377343,164.90358742326498 L 57.54171821847558,163.9089011773467 " fill="rgb(77,57,60)" stroke="rgb(77,57,60)" stroke-width="2" /><path d="M +57.54171821847558,163.9089011773467 L 57.91956192627549,161.94189294427633 " fill="rgb(77,57,60)" stroke="rgb(77,57,60)" stroke-width="2" /><path d="M +57.91956192627549,161.94189294427633 L 58.600922886282206,160.40346141904593 " fill="rgb(77,57,60)" stroke="rgb(77,57,60)" stroke-width="2" /><path d="M +58.600922886282206,160.40346141904593 L 58.44899557903409,159.58268370479345 " fill="rgb(77,57,60)" stroke="rgb(77,57,60)" stroke-width="2" /><path d="M +58.44899557903409,159.58268370479345 L 58.46638102084398,159.43128439038992 " fill="rgb(77,57,60)" stroke="rgb(77,57,60)" stroke-width="2" /><path d="M +58.46638102084398,159.43128439038992 L 58.881868578493595,159.5300628617406 " fill="rgb(77,57,60)" stroke="rgb(77,57,60)" stroke-width="2" /><path d="M +58.881868578493595,159.5300628617406 L 59.86537001281977,159.76265864819288 " fill="rgb(77,57,60)" stroke="rgb(77,57,60)" stroke-width="2" /><path d="M +59.86537001281977,159.76265864819288 L 61.25549874454737,160.54714029282331 " fill="rgb(77,57,60)" stroke="rgb(77,57,60)" stroke-width="2" /><path d="M +61.25549874454737,160.54714029282331 L 62.985612370073795,160.99055858701468 " fill="rgb(77,57,60)" stroke="rgb(77,57,60)" stroke-width="2" /><path d="M +62.985612370073795,160.99055858701468 L 64.80144558101892,161.09499233216047 " fill="rgb(77,57,60)" stroke="rgb(77,57,60)" stroke-width="2" /><path d="M +64.80144558101892,161.09499233216047 L 66.2154935374856,160.14983581751585 " fill="rgb(77,57,60)" stroke="rgb(77,57,60)" stroke-width="2" /><path d="M +66.2154935374856,160.14983581751585 L 67.92566940933466,158.20386707037687 " fill="rgb(77,57,60)" stroke="rgb(77,57,60)" stroke-width="2" /><path d="M +67.92566940933466,158.20386707037687 L 69.65658912807703,155.56974755972624 " fill="rgb(77,57,60)" stroke="rgb(77,57,60)" stroke-width="2" /><path d="M +69.65658912807703,155.56974755972624 L 70.53171912580729,151.72682487219572 " fill="rgb(77,57,60)" stroke="rgb(77,57,60)" stroke-width="2" /><path d="M +70.53171912580729,151.72682487219572 L 70.26003546267748,147.17293893545866 " fill="rgb(77,57,60)" stroke="rgb(77,57,60)" stroke-width="2" /><path d="M 75.62740129977465,118.99402581900358 " fill="rgb(193,72,85)" stroke="rgb(193,72,85)" stroke-width="2" /><path d="M +75.62740129977465,118.99402581900358 L 77.07991785556078,114.24210702627897 " fill="rgb(193,72,85)" stroke="rgb(193,72,85)" stroke-width="2" /><path d="M +77.07991785556078,114.24210702627897 L 78.31206316500902,111.77121912688017 " fill="rgb(193,72,85)" stroke="rgb(193,72,85)" stroke-width="2" /><path d="M +78.31206316500902,111.77121912688017 L 78.45899697393179,109.29016958922148 " fill="rgb(193,72,85)" stroke="rgb(193,72,85)" stroke-width="2" /><path d="M +78.45899697393179,109.29016958922148 L 78.23224214464426,107.16413366049528 " fill="rgb(193,72,85)" stroke="rgb(193,72,85)" stroke-width="2" /><path d="M +78.23224214464426,107.16413366049528 L 78.0479209497571,105.4319419786334 " fill="rgb(193,72,85)" stroke="rgb(193,72,85)" stroke-width="2" /><path d="M +78.0479209497571,105.4319419786334 L 77.48385942727327,103.86270581930876 " fill="rgb(193,72,85)" stroke="rgb(193,72,85)" stroke-width="2" /><path d="M +77.48385942727327,103.86270581930876 L 77.07265035063028,103.18343346565962 " fill="rgb(193,72,85)" stroke="rgb(193,72,85)" stroke-width="2" /><path d="M +77.07265035063028,103.18343346565962 L 77.35209197551012,103.68594931811094 " fill="rgb(193,72,85)" stroke="rgb(193,72,85)" stroke-width="2" /><path d="M +77.35209197551012,103.68594931811094 L 77.73699472099543,105.41775011271238 " fill="rgb(193,72,85)" stroke="rgb(193,72,85)" stroke-width="2" /><path d="M +77.73699472099543,105.41775011271238 L 77.79025092348456,107.76015066355467 " fill="rgb(193,72,85)" stroke="rgb(193,72,85)" stroke-width="2" /><path d="M +77.79025092348456,107.76015066355467 L 77.62952895089984,111.50488852709532 " fill="rgb(193,72,85)" stroke="rgb(193,72,85)" stroke-width="2" /><path d="M +77.62952895089984,111.50488852709532 L 77.73994385823607,116.6840925142169 " fill="rgb(193,72,85)" stroke="rgb(193,72,85)" stroke-width="2" /><path d="M +77.73994385823607,116.6840925142169 L 77.21763336285949,121.69968079775572 " fill="rgb(193,72,85)" stroke="rgb(193,72,85)" stroke-width="2" /><path d="M +77.21763336285949,121.69968079775572 L 76.88737025484443,127.23865889757872 " fill="rgb(193,72,85)" stroke="rgb(193,72,85)" stroke-width="2" /><path d="M +76.88737025484443,127.23865889757872 L 76.83615488931537,132.16479682177305 " fill="rgb(193,72,85)" stroke="rgb(193,72,85)" stroke-width="2" /><path d="M +76.83615488931537,132.16479682177305 L 76.72013196721673,135.73763155192137 " fill="rgb(193,72,85)" stroke="rgb(193,72,85)" stroke-width="2" /><path d="M +76.72013196721673,135.73763155192137 L 77.72452447190881,138.95883106440306 " fill="rgb(193,72,85)" stroke="rgb(193,72,85)" stroke-width="2" /><path d="M +77.72452447190881,138.95883106440306 L 79.56933638826013,141.93049930781126 " fill="rgb(193,72,85)" stroke="rgb(193,72,85)" stroke-width="2" /><path d="M +79.56933638826013,141.93049930781126 L 81.067397210747,143.26083742827177 " fill="rgb(193,72,85)" stroke="rgb(193,72,85)" stroke-width="2" /><path d="M +81.067397210747,143.26083742827177 L 82.2786531187594,143.09019503742456 " fill="rgb(193,72,85)" stroke="rgb(193,72,85)" stroke-width="2" /><path d="M +82.2786531187594,143.09019503742456 L 84.0890562273562,142.53797612339258 " fill="rgb(193,72,85)" stroke="rgb(193,72,85)" stroke-width="2" /><path d="M +84.0890562273562,142.53797612339258 L 85.1897778250277,140.40392694622278 " fill="rgb(193,72,85)" stroke="rgb(193,72,85)" stroke-width="2" /><path d="M +85.1897778250277,140.40392694622278 L 85.43976229801774,136.4428969398141 " fill="rgb(193,72,85)" stroke="rgb(193,72,85)" stroke-width="2" /><path d="M +85.43976229801774,136.4428969398141 L 85.00560582056642,132.3170023933053 " fill="rgb(193,72,85)" stroke="rgb(193,72,85)" stroke-width="2" /><path d="M +85.00560582056642,132.3170023933053 L 84.00533426180482,128.64473686367273 " fill="rgb(193,72,85)" stroke="rgb(193,72,85)" stroke-width="2" /><path d="M +84.00533426180482,128.64473686367273 L 81.4906655587256,125.14298520237207 " fill="rgb(193,72,85)" stroke="rgb(193,72,85)" stroke-width="2" /><path d="M +81.4906655587256,125.14298520237207 L 78.77523982897401,122.46156082302332 " fill="rgb(193,72,85)" stroke="rgb(193,72,85)" stroke-width="2" /><path d="M +78.77523982897401,122.46156082302332 L 76.05065620318055,121.22552702575922 " fill="rgb(193,72,85)" stroke="rgb(193,72,85)" stroke-width="2" /><path d="M +76.05065620318055,121.22552702575922 L 73.70863473787904,121.52897692471743 " fill="rgb(193,72,85)" stroke="rgb(193,72,85)" stroke-width="2" /><path d="M +73.70863473787904,121.52897692471743 L 71.86258840933442,122.21669293195009 " fill="rgb(193,72,85)" stroke="rgb(193,72,85)" stroke-width="2" /><path d="M +71.86258840933442,122.21669293195009 L 70.69882083311677,123.75911451131105 " fill="rgb(193,72,85)" stroke="rgb(193,72,85)" stroke-width="2" /><path d="M +70.69882083311677,123.75911451131105 L 70.39146301522851,125.38338423520327 " fill="rgb(193,72,85)" stroke="rgb(193,72,85)" stroke-width="2" /><path d="M +70.39146301522851,125.38338423520327 L 70.7060326077044,126.43815625458956 " fill="rgb(193,72,85)" stroke="rgb(193,72,85)" stroke-width="2" /><path d="M +70.7060326077044,126.43815625458956 L 71.8352480866015,128.2264595106244 " fill="rgb(193,72,85)" stroke="rgb(193,72,85)" stroke-width="2" /><path d="M +71.8352480866015,128.2264595106244 L 74.2438629604876,130.21746159344912 " fill="rgb(193,72,85)" stroke="rgb(193,72,85)" stroke-width="2" /><path d="M +74.2438629604876,130.21746159344912 L 76.7102251984179,131.23624861985445 " fill="rgb(193,72,85)" stroke="rgb(193,72,85)" stroke-width="2" /><path d="M +76.7102251984179,131.23624861985445 L 79.80796155706048,131.38323881477118 " fill="rgb(193,72,85)" stroke="rgb(193,72,85)" stroke-width="2" /><path d="M +79.80796155706048,131.38323881477118 L 83.48744187131524,131.50256630033255 " fill="rgb(193,72,85)" stroke="rgb(193,72,85)" stroke-width="2" /><path d="M +83.48744187131524,131.50256630033255 L 86.12621483579278,130.61807503551245 " fill="rgb(193,72,85)" stroke="rgb(193,72,85)" stroke-width="2" /><path d="M +86.12621483579278,130.61807503551245 L 88.39476856961846,129.7622503861785 " fill="rgb(193,72,85)" stroke="rgb(193,72,85)" stroke-width="2" /><path d="M +88.39476856961846,129.7622503861785 L 89.30294523015618,128.35652252286673 " fill="rgb(193,72,85)" stroke="rgb(193,72,85)" stroke-width="2" /><path d="M +89.30294523015618,128.35652252286673 L 89.09672871604562,126.24939509481192 " fill="rgb(193,72,85)" stroke="rgb(193,72,85)" stroke-width="2" /><path d="M +89.09672871604562,126.24939509481192 L 87.50652841106057,124.08777805417776 " fill="rgb(193,72,85)" stroke="rgb(193,72,85)" stroke-width="2" /><path d="M +87.50652841106057,124.08777805417776 L 85.90297082439065,122.6688710078597 " fill="rgb(193,72,85)" stroke="rgb(193,72,85)" stroke-width="2" /><path d="M +85.90297082439065,122.6688710078597 L 82.65624168887734,120.98191627115011 " fill="rgb(193,72,85)" stroke="rgb(193,72,85)" stroke-width="2" /><path d="M +82.65624168887734,120.98191627115011 L 79.99739697948098,120.83318088203669 " fill="rgb(193,72,85)" stroke="rgb(193,72,85)" stroke-width="2" /><path d="M +79.99739697948098,120.83318088203669 L 76.79413059726357,120.26561502367258 " fill="rgb(193,72,85)" stroke="rgb(193,72,85)" stroke-width="2" /><path d="M +76.79413059726357,120.26561502367258 L 74.68616918101907,120.57136798650026 " fill="rgb(193,72,85)" stroke="rgb(193,72,85)" stroke-width="2" /><path d="M +74.68616918101907,120.57136798650026 L 73.61701766029,121.30273617058992 " fill="rgb(193,72,85)" stroke="rgb(193,72,85)" stroke-width="2" /><path d="M +73.61701766029,121.30273617058992 L 73.2660737670958,122.04432827979326 " fill="rgb(193,72,85)" stroke="rgb(193,72,85)" stroke-width="2" /><path d="M 76.81038123741746,114.38163859397173 " fill="rgb(207,128,88)" stroke="rgb(207,128,88)" stroke-width="2" /><path d="M +76.81038123741746,114.38163859397173 L 78.29161650314927,115.31866658478975 " fill="rgb(207,128,88)" stroke="rgb(207,128,88)" stroke-width="2" /><path d="M +78.29161650314927,115.31866658478975 L 78.39321157708764,115.26089388132095 " fill="rgb(207,128,88)" stroke="rgb(207,128,88)" stroke-width="2" /><path d="M +78.39321157708764,115.26089388132095 L 79.58507272973657,116.42457121610641 " fill="rgb(207,128,88)" stroke="rgb(207,128,88)" stroke-width="2" /><path d="M +79.58507272973657,116.42457121610641 L 80.71854803338647,117.62044876813889 " fill="rgb(207,128,88)" stroke="rgb(207,128,88)" stroke-width="2" /><path d="M +80.71854803338647,117.62044876813889 L 81.37705394998193,117.81532606482506 " fill="rgb(207,128,88)" stroke="rgb(207,128,88)" stroke-width="2" /><path d="M +81.37705394998193,117.81532606482506 L 82.81406912580132,118.351745814085 " fill="rgb(207,128,88)" stroke="rgb(207,128,88)" stroke-width="2" /><path d="M +82.81406912580132,118.351745814085 L 83.71888253465295,118.22031944990158 " fill="rgb(207,128,88)" stroke="rgb(207,128,88)" stroke-width="2" /><path d="M +83.71888253465295,118.22031944990158 L 84.8594464994967,117.60571783781052 " fill="rgb(207,128,88)" stroke="rgb(207,128,88)" stroke-width="2" /><path d="M +84.8594464994967,117.60571783781052 L 85.95392367616296,116.66600286960602 " fill="rgb(207,128,88)" stroke="rgb(207,128,88)" stroke-width="2" /><path d="M +85.95392367616296,116.66600286960602 L 87.12278709188104,115.27423942089081 " fill="rgb(207,128,88)" stroke="rgb(207,128,88)" stroke-width="2" /><path d="M +87.12278709188104,115.27423942089081 L 87.94723925366998,114.38221871852875 " fill="rgb(207,128,88)" stroke="rgb(207,128,88)" stroke-width="2" /><path d="M +87.94723925366998,114.38221871852875 L 88.38948011770844,114.2234643548727 " fill="rgb(207,128,88)" stroke="rgb(207,128,88)" stroke-width="2" /><path d="M +88.38948011770844,114.2234643548727 L 88.35284911468625,114.17148986831307 " fill="rgb(207,128,88)" stroke="rgb(207,128,88)" stroke-width="2" /><path d="M +88.35284911468625,114.17148986831307 L 88.44613656774163,114.40681675449014 " fill="rgb(207,128,88)" stroke="rgb(207,128,88)" stroke-width="2" /><path d="M +88.44613656774163,114.40681675449014 L 89.1955859400332,116.04193702712655 " fill="rgb(207,128,88)" stroke="rgb(207,128,88)" stroke-width="2" /><path d="M +89.1955859400332,116.04193702712655 L 89.85124788060784,118.37679091468453 " fill="rgb(207,128,88)" stroke="rgb(207,128,88)" stroke-width="2" /><path d="M +89.85124788060784,118.37679091468453 L 90.55833349004388,120.85729042068124 " fill="rgb(207,128,88)" stroke="rgb(207,128,88)" stroke-width="2" /><path d="M +90.55833349004388,120.85729042068124 L 90.73338750377297,122.6397798396647 " fill="rgb(207,128,88)" stroke="rgb(207,128,88)" stroke-width="2" /><path d="M +90.73338750377297,122.6397798396647 L 91.35265288129449,124.33751026168466 " fill="rgb(207,128,88)" stroke="rgb(207,128,88)" stroke-width="2" /><path d="M +91.35265288129449,124.33751026168466 L 92.026920709759,125.07856318727136 " fill="rgb(207,128,88)" stroke="rgb(207,128,88)" stroke-width="2" /><path d="M +92.026920709759,125.07856318727136 L 93.36341968551278,125.13354639708996 " fill="rgb(207,128,88)" stroke="rgb(207,128,88)" stroke-width="2" /><path d="M +93.36341968551278,125.13354639708996 L 95.69880763068795,124.666285648942 " fill="rgb(207,128,88)" stroke="rgb(207,128,88)" stroke-width="2" /><path d="M +95.69880763068795,124.666285648942 L 98.07293168082833,123.41160048544407 " fill="rgb(207,128,88)" stroke="rgb(207,128,88)" stroke-width="2" /><path d="M +98.07293168082833,123.41160048544407 L 100.58873263373971,121.22640360891819 " fill="rgb(207,128,88)" stroke="rgb(207,128,88)" stroke-width="2" /><path d="M +100.58873263373971,121.22640360891819 L 102.48517635837197,118.33313693106174 " fill="rgb(207,128,88)" stroke="rgb(207,128,88)" stroke-width="2" /><path d="M +102.48517635837197,118.33313693106174 L 104.47503331676126,114.89713253080845 " fill="rgb(207,128,88)" stroke="rgb(207,128,88)" stroke-width="2" /><path d="M +104.47503331676126,114.89713253080845 L 105.90771082416177,110.30630315840244 " fill="rgb(207,128,88)" stroke="rgb(207,128,88)" stroke-width="2" /><path d="M +105.90771082416177,110.30630315840244 L 107.4694061614573,104.71817506849766 " fill="rgb(207,128,88)" stroke="rgb(207,128,88)" stroke-width="2" /><path d="M +107.4694061614573,104.71817506849766 L 107.56748190894723,98.00562442839146 " fill="rgb(207,128,88)" stroke="rgb(207,128,88)" stroke-width="2" /><path d="M +107.56748190894723,98.00562442839146 L 108.15504405274987,91.86513151228428 " fill="rgb(207,128,88)" stroke="rgb(207,128,88)" stroke-width="2" /><path d="M +108.15504405274987,91.86513151228428 L 107.39672431722283,85.83285726606846 " fill="rgb(207,128,88)" stroke="rgb(207,128,88)" stroke-width="2" /><path d="M +107.39672431722283,85.83285726606846 L 106.52293441072106,80.62538827955723 " fill="rgb(207,128,88)" stroke="rgb(207,128,88)" stroke-width="2" /><path d="M +106.52293441072106,80.62538827955723 L 105.15237197652459,76.43549980223179 " fill="rgb(207,128,88)" stroke="rgb(207,128,88)" stroke-width="2" /><path d="M +105.15237197652459,76.43549980223179 L 103.66564128175378,73.2582808881998 " fill="rgb(207,128,88)" stroke="rgb(207,128,88)" stroke-width="2" /><path d="M +103.66564128175378,73.2582808881998 L 102.44538376107812,71.21859706938267 " fill="rgb(207,128,88)" stroke="rgb(207,128,88)" stroke-width="2" /><path d="M +102.44538376107812,71.21859706938267 L 100.96337363496423,70.22535581886768 " fill="rgb(207,128,88)" stroke="rgb(207,128,88)" stroke-width="2" /><path d="M +100.96337363496423,70.22535581886768 L 99.8998050428927,70.37740656733513 " fill="rgb(207,128,88)" stroke="rgb(207,128,88)" stroke-width="2" /><path d="M +99.8998050428927,70.37740656733513 L 98.74520895257592,71.53605708479881 " fill="rgb(207,128,88)" stroke="rgb(207,128,88)" stroke-width="2" /><path d="M +98.74520895257592,71.53605708479881 L 98.27322736755013,73.2072648704052 " fill="rgb(207,128,88)" stroke="rgb(207,128,88)" stroke-width="2" /><path d="M +98.27322736755013,73.2072648704052 L 98.25433458760381,75.110117405653 " fill="rgb(207,128,88)" stroke="rgb(207,128,88)" stroke-width="2" /><path d="M +98.25433458760381,75.110117405653 L 98.56489543989301,76.77615937590599 " fill="rgb(207,128,88)" stroke="rgb(207,128,88)" stroke-width="2" /><path d="M +98.56489543989301,76.77615937590599 L 99.89801650121808,78.96661671996117 " fill="rgb(207,128,88)" stroke="rgb(207,128,88)" stroke-width="2" /><path d="M +99.89801650121808,78.96661671996117 L 101.49412505701184,80.94297108054161 " fill="rgb(207,128,88)" stroke="rgb(207,128,88)" stroke-width="2" /><path d="M +101.49412505701184,80.94297108054161 L 103.9153799302876,83.1164079606533 " fill="rgb(207,128,88)" stroke="rgb(207,128,88)" stroke-width="2" /><path d="M +103.9153799302876,83.1164079606533 L 106.57423942163587,84.80070933699608 " fill="rgb(207,128,88)" stroke="rgb(207,128,88)" stroke-width="2" /><path d="M +106.57423942163587,84.80070933699608 L 109.24164908006787,86.77288970351219 " fill="rgb(207,128,88)" stroke="rgb(207,128,88)" stroke-width="2" /><path d="M +109.24164908006787,86.77288970351219 L 111.15859811380506,88.22530815005302 " fill="rgb(207,128,88)" stroke="rgb(207,128,88)" stroke-width="2" /><path d="M +111.15859811380506,88.22530815005302 L 112.37406354025006,89.04860058426857 " fill="rgb(207,128,88)" stroke="rgb(207,128,88)" stroke-width="2" /><path d="M +112.37406354025006,89.04860058426857 L 113.39896409586072,89.99268379807472 " fill="rgb(207,128,88)" stroke="rgb(207,128,88)" stroke-width="2" /><path d="M +113.39896409586072,89.99268379807472 L 113.60603109374642,90.38868728280067 " fill="rgb(207,128,88)" stroke="rgb(207,128,88)" stroke-width="2" /><path d="M +113.60603109374642,90.38868728280067 L 113.37562285736203,90.75223618745804 " fill="rgb(207,128,88)" stroke="rgb(207,128,88)" stroke-width="2" /><path d="M +113.37562285736203,90.75223618745804 L 112.79460250213742,90.85883983969688 " fill="rgb(207,128,88)" stroke="rgb(207,128,88)" stroke-width="2" /><path d="M +112.79460250213742,90.85883983969688 L 111.83124982193112,91.05086190998554 " fill="rgb(207,128,88)" stroke="rgb(207,128,88)" stroke-width="2" /><path d="M +111.83124982193112,91.05086190998554 L 110.37545965984464,90.46376450359821 " fill="rgb(207,128,88)" stroke="rgb(207,128,88)" stroke-width="2" /><path d="M +110.37545965984464,90.46376450359821 L 109.14616845920682,89.68838359415531 " fill="rgb(207,128,88)" stroke="rgb(207,128,88)" stroke-width="2" /><path d="M +109.14616845920682,89.68838359415531 L 108.21893887594342,88.54440678656101 " fill="rgb(207,128,88)" stroke="rgb(207,128,88)" stroke-width="2" /><path d="M +108.21893887594342,88.54440678656101 L 107.12209348753095,86.8556622415781 " fill="rgb(207,128,88)" stroke="rgb(207,128,88)" stroke-width="2" /><path d="M +107.12209348753095,86.8556622415781 L 106.7115467377007,84.95897282660007 " fill="rgb(207,128,88)" stroke="rgb(207,128,88)" stroke-width="2" /><path d="M +106.7115467377007,84.95897282660007 L 106.78696029260755,84.7266012430191 " fill="rgb(207,128,88)" stroke="rgb(207,128,88)" stroke-width="2" /><path d="M 126.55977790430188,75.98985159397125 " fill="rgb(28,213,34)" stroke="rgb(28,213,34)" stroke-width="2" /><path d="M +126.55977790430188,75.98985159397125 L 126.42568992450833,76.05485194176435 " fill="rgb(28,213,34)" stroke="rgb(28,213,34)" stroke-width="2" /><path d="M +126.42568992450833,76.05485194176435 L 125.0621592886746,76.25047715753317 " fill="rgb(28,213,34)" stroke="rgb(28,213,34)" stroke-width="2" /><path d="M +125.0621592886746,76.25047715753317 L 123.90281664207578,77.57340057939291 " fill="rgb(28,213,34)" stroke="rgb(28,213,34)" stroke-width="2" /><path d="M +123.90281664207578,77.57340057939291 L 122.78625236824155,79.47956307977438 " fill="rgb(28,213,34)" stroke="rgb(28,213,34)" stroke-width="2" /><path d="M +122.78625236824155,79.47956307977438 L 121.77705167606473,82.36254223436117 " fill="rgb(28,213,34)" stroke="rgb(28,213,34)" stroke-width="2" /><path d="M +121.77705167606473,82.36254223436117 L 121.30769272521138,85.47150834649801 " fill="rgb(28,213,34)" stroke="rgb(28,213,34)" stroke-width="2" /><path d="M +121.30769272521138,85.47150834649801 L 120.92436100915074,88.03982575982809 " fill="rgb(28,213,34)" stroke="rgb(28,213,34)" stroke-width="2" /><path d="M +120.92436100915074,88.03982575982809 L 121.64463939145207,90.52368148416281 " fill="rgb(28,213,34)" stroke="rgb(28,213,34)" stroke-width="2" /><path d="M +121.64463939145207,90.52368148416281 L 121.76994531229138,91.79379769414663 " fill="rgb(28,213,34)" stroke="rgb(28,213,34)" stroke-width="2" /><path d="M +121.76994531229138,91.79379769414663 L 122.35124396160245,92.90807088464499 " fill="rgb(28,213,34)" stroke="rgb(28,213,34)" stroke-width="2" /><path d="M +122.35124396160245,92.90807088464499 L 123.207803953439,93.01657850295305 " fill="rgb(28,213,34)" stroke="rgb(28,213,34)" stroke-width="2" /><path d="M +123.207803953439,93.01657850295305 L 124.32076441124082,92.56254789978266 " fill="rgb(28,213,34)" stroke="rgb(28,213,34)" stroke-width="2" /><path d="M +124.32076441124082,92.56254789978266 L 125.3406541235745,90.70159623771906 " fill="rgb(28,213,34)" stroke="rgb(28,213,34)" stroke-width="2" /><path d="M +125.3406541235745,90.70159623771906 L 126.94710444286466,88.47539279609919 " fill="rgb(28,213,34)" stroke="rgb(28,213,34)" stroke-width="2" /><path d="M +126.94710444286466,88.47539279609919 L 128.9731426127255,86.25948712974787 " fill="rgb(28,213,34)" stroke="rgb(28,213,34)" stroke-width="2" /><path d="M +128.9731426127255,86.25948712974787 L 129.81700061634183,83.8226153627038 " fill="rgb(28,213,34)" stroke="rgb(28,213,34)" stroke-width="2" /><path d="M +129.81700061634183,83.8226153627038 L 130.9259537346661,82.54518900066614 " fill="rgb(28,213,34)" stroke="rgb(28,213,34)" stroke-width="2" /><path d="M +130.9259537346661,82.54518900066614 L 131.3750280328095,82.26915914565325 " fill="rgb(28,213,34)" stroke="rgb(28,213,34)" stroke-width="2" /><path d="M +131.3750280328095,82.26915914565325 L 131.7332095094025,82.687311001122 " fill="rgb(28,213,34)" stroke="rgb(28,213,34)" stroke-width="2" /><path d="M +131.7332095094025,82.687311001122 L 131.3852591700852,83.93145317584276 " fill="rgb(28,213,34)" stroke="rgb(28,213,34)" stroke-width="2" /><path d="M +131.3852591700852,83.93145317584276 L 131.56273401156068,86.72576803714037 " fill="rgb(28,213,34)" stroke="rgb(28,213,34)" stroke-width="2" /><path d="M +131.56273401156068,86.72576803714037 L 131.72698134556413,90.26764268428087 " fill="rgb(28,213,34)" stroke="rgb(28,213,34)" stroke-width="2" /><path d="M +131.72698134556413,90.26764268428087 L 131.7101845871657,93.53626365214586 " fill="rgb(28,213,34)" stroke="rgb(28,213,34)" stroke-width="2" /><path d="M +131.7101845871657,93.53626365214586 L 131.74726921133697,96.59702772647142 " fill="rgb(28,213,34)" stroke="rgb(28,213,34)" stroke-width="2" /><path d="M +131.74726921133697,96.59702772647142 L 131.98824459128082,99.26768750697374 " fill="rgb(28,213,34)" stroke="rgb(28,213,34)" stroke-width="2" /><path d="M 154.82444721274078,83.21354932338 " fill="rgb(199,211,77)" stroke="rgb(199,211,77)" stroke-width="2" /><path d="M +154.82444721274078,83.21354932338 L 153.70343214087188,82.57366836816072 " fill="rgb(199,211,77)" stroke="rgb(199,211,77)" stroke-width="2" /><path d="M +153.70343214087188,82.57366836816072 L 153.21863281540573,82.78845081478357 " fill="rgb(199,211,77)" stroke="rgb(199,211,77)" stroke-width="2" /><path d="M +153.21863281540573,82.78845081478357 L 152.58704757504165,84.29905793815851 " fill="rgb(199,211,77)" stroke="rgb(199,211,77)" stroke-width="2" /><path d="M +152.58704757504165,84.29905793815851 L 152.07021224312484,87.28754112869501 " fill="rgb(199,211,77)" stroke="rgb(199,211,77)" stroke-width="2" /><path d="M +152.07021224312484,87.28754112869501 L 151.90586060099304,90.21683428436518 " fill="rgb(199,211,77)" stroke="rgb(199,211,77)" stroke-width="2" /><path d="M +151.90586060099304,90.21683428436518 L 152.27686995081604,93.508794285357 " fill="rgb(199,211,77)" stroke="rgb(199,211,77)" stroke-width="2" /><path d="M +152.27686995081604,93.508794285357 L 152.9993400555104,96.69051668792963 " fill="rgb(199,211,77)" stroke="rgb(199,211,77)" stroke-width="2" /><path d="M +152.9993400555104,96.69051668792963 L 153.02078601904213,98.94488785415888 " fill="rgb(199,211,77)" stroke="rgb(199,211,77)" stroke-width="2" /><path d="M +153.02078601904213,98.94488785415888 L 153.50988841243088,101.08027432113886 " fill="rgb(199,211,77)" stroke="rgb(199,211,77)" stroke-width="2" /><path d="M +153.50988841243088,101.08027432113886 L 153.3812903035432,102.32995817810297 " fill="rgb(199,211,77)" stroke="rgb(199,211,77)" stroke-width="2" /><path d="M +153.3812903035432,102.32995817810297 L 153.30781532265246,102.69902045279741 " fill="rgb(199,211,77)" stroke="rgb(199,211,77)" stroke-width="2" /><path d="M +153.30781532265246,102.69902045279741 L 153.20779922790825,102.66177800297737 " fill="rgb(199,211,77)" stroke="rgb(199,211,77)" stroke-width="2" /><path d="M +153.20779922790825,102.66177800297737 L 153.05073075182736,101.51278701424599 " fill="rgb(199,211,77)" stroke="rgb(199,211,77)" stroke-width="2" /><path d="M +153.05073075182736,101.51278701424599 L 152.9049350041896,98.47413721680641 " fill="rgb(199,211,77)" stroke="rgb(199,211,77)" stroke-width="2" /><path d="M +152.9049350041896,98.47413721680641 L 152.8760613054037,94.38035050034523 " fill="rgb(199,211,77)" stroke="rgb(199,211,77)" stroke-width="2" /><path d="M 161.10498128831387,63.57792893052101 " fill="rgb(56,158,40)" stroke="rgb(56,158,40)" stroke-width="2" /><path d="M +161.10498128831387,63.57792893052101 L 161.6719103306532,62.747127026319504 " fill="rgb(56,158,40)" stroke="rgb(56,158,40)" stroke-width="2" /><path d="M +161.6719103306532,62.747127026319504 L 161.63407303020358,62.39037123322487 " fill="rgb(56,158,40)" stroke="rgb(56,158,40)" stroke-width="2" /><path d="M +161.63407303020358,62.39037123322487 L 161.5660550482571,62.11642014980316 " fill="rgb(56,158,40)" stroke="rgb(56,158,40)" stroke-width="2" /><path d="M +161.5660550482571,62.11642014980316 L 161.89393006637692,62.52437877655029 " fill="rgb(56,158,40)" stroke="rgb(56,158,40)" stroke-width="2" /><path d="M +161.89393006637692,62.52437877655029 L 161.99485151097178,63.1840825676918 " fill="rgb(56,158,40)" stroke="rgb(56,158,40)" stroke-width="2" /><path d="M +161.99485151097178,63.1840825676918 L 161.46665946766734,63.54074972867966 " fill="rgb(56,158,40)" stroke="rgb(56,158,40)" stroke-width="2" /><path d="M +161.46665946766734,63.54074972867966 L 161.0327088944614,62.805165469646454 " fill="rgb(56,158,40)" stroke="rgb(56,158,40)" stroke-width="2" /><path d="M +161.0327088944614,62.805165469646454 L 160.81543668732047,61.90416783094406 " fill="rgb(56,158,40)" stroke="rgb(56,158,40)" stroke-width="2" /><path d="M 163.68328842148185,62.1429029405117 " fill="rgb(60,172,26)" stroke="rgb(60,172,26)" stroke-width="2" /><path d="M +163.68328842148185,62.1429029405117 L 163.6286597698927,62.336257219314575 " fill="rgb(60,172,26)" stroke="rgb(60,172,26)" stroke-width="2" /><path d="M +163.6286597698927,62.336257219314575 L 164.14800988137722,63.12561500072479 " fill="rgb(60,172,26)" stroke="rgb(60,172,26)" stroke-width="2" /><path d="M +164.14800988137722,63.12561500072479 L 163.4626870006323,63.57421374320984 " fill="rgb(60,172,26)" stroke="rgb(60,172,26)" stroke-width="2" /><path d="M +163.4626870006323,63.57421374320984 L 163.42480181530118,65.70925498008728 " fill="rgb(60,172,26)" stroke="rgb(60,172,26)" stroke-width="2" /><path d="M +163.42480181530118,65.70925498008728 L 162.81841515377164,67.74716758728027 " fill="rgb(60,172,26)" stroke="rgb(60,172,26)" stroke-width="2" /><path d="M +162.81841515377164,67.74716758728027 L 162.77600802108645,70.60856676101685 " fill="rgb(60,172,26)" stroke="rgb(60,172,26)" stroke-width="2" /><path d="M +162.77600802108645,70.60856676101685 L 163.2941629998386,73.8489875793457 " fill="rgb(60,172,26)" stroke="rgb(60,172,26)" stroke-width="2" /><path d="M +163.2941629998386,73.8489875793457 L 163.57205836102366,76.38933205604553 " fill="rgb(60,172,26)" stroke="rgb(60,172,26)" stroke-width="2" /><path d="M +163.57205836102366,76.38933205604553 L 164.1304446272552,78.57925152778625 " fill="rgb(60,172,26)" stroke="rgb(60,172,26)" stroke-width="2" /><path d="M +164.1304446272552,78.57925152778625 L 164.92184809967875,80.57380485534668 " fill="rgb(60,172,26)" stroke="rgb(60,172,26)" stroke-width="2" /><path d="M +164.92184809967875,80.57380485534668 L 165.14006538316607,82.24089574813843 " fill="rgb(60,172,26)" stroke="rgb(60,172,26)" stroke-width="2" /><path d="M +165.14006538316607,82.24089574813843 L 165.05931340530515,83.94109439849854 " fill="rgb(60,172,26)" stroke="rgb(60,172,26)" stroke-width="2" /><path d="M +165.05931340530515,83.94109439849854 L 165.05241800658405,84.93180590867996 " fill="rgb(60,172,26)" stroke="rgb(60,172,26)" stroke-width="2" /><path d="M +165.05241800658405,84.93180590867996 L 165.49833790771663,85.87527447938919 " fill="rgb(60,172,26)" stroke="rgb(60,172,26)" stroke-width="2" /><path d="M +165.49833790771663,85.87527447938919 L 165.97857929579914,86.76121646165848 " fill="rgb(60,172,26)" stroke="rgb(60,172,26)" stroke-width="2" /><path d="M +165.97857929579914,86.76121646165848 L 165.5378054510802,87.40276855230331 " fill="rgb(60,172,26)" stroke="rgb(60,172,26)" stroke-width="2" /><path d="M 184.74356259219348,71.88379615545273 " fill="rgb(54,235,134)" stroke="rgb(54,235,134)" stroke-width="2" /><path d="M +184.74356259219348,71.88379615545273 L 184.8295555692166,75.43132418394089 " fill="rgb(54,235,134)" stroke="rgb(54,235,134)" stroke-width="2" /><path d="M +184.8295555692166,75.43132418394089 L 184.44703268818557,79.07556027173996 " fill="rgb(54,235,134)" stroke="rgb(54,235,134)" stroke-width="2" /><path d="M +184.44703268818557,79.07556027173996 L 184.12727522663772,82.54873079061508 " fill="rgb(54,235,134)" stroke="rgb(54,235,134)" stroke-width="2" /><path d="M +184.12727522663772,82.54873079061508 L 184.13005588250235,85.93225902318954 " fill="rgb(54,235,134)" stroke="rgb(54,235,134)" stroke-width="2" /><path d="M +184.13005588250235,85.93225902318954 L 184.6089350064285,89.04144090414047 " fill="rgb(54,235,134)" stroke="rgb(54,235,134)" stroke-width="2" /><path d="M +184.6089350064285,89.04144090414047 L 184.33785200910643,90.53095108270645 " fill="rgb(54,235,134)" stroke="rgb(54,235,134)" stroke-width="2" /><path d="M +184.33785200910643,90.53095108270645 L 184.9057645876892,92.13159793615341 " fill="rgb(54,235,134)" stroke="rgb(54,235,134)" stroke-width="2" /><path d="M +184.9057645876892,92.13159793615341 L 185.37288904981688,93.3452804684639 " fill="rgb(54,235,134)" stroke="rgb(54,235,134)" stroke-width="2" /><path d="M +185.37288904981688,93.3452804684639 L 185.52875330345705,93.8384261727333 " fill="rgb(54,235,134)" stroke="rgb(54,235,134)" stroke-width="2" /><path d="M +185.52875330345705,93.8384261727333 L 185.74138907389715,93.92058511078358 " fill="rgb(54,235,134)" stroke="rgb(54,235,134)" stroke-width="2" /><path d="M +185.74138907389715,93.92058511078358 L 186.02738068299368,93.5711417645216 " fill="rgb(54,235,134)" stroke="rgb(54,235,134)" stroke-width="2" /><path d="M +186.02738068299368,93.5711417645216 L 186.96152297453955,92.18776087462902 " fill="rgb(54,235,134)" stroke="rgb(54,235,134)" stroke-width="2" /><path d="M +186.96152297453955,92.18776087462902 L 187.70172796444967,89.609186694026 " fill="rgb(54,235,134)" stroke="rgb(54,235,134)" stroke-width="2" /><path d="M +187.70172796444967,89.609186694026 L 188.91074786381796,86.99435620009899 " fill="rgb(54,235,134)" stroke="rgb(54,235,134)" stroke-width="2" /><path d="M +188.91074786381796,86.99435620009899 L 189.8315449138172,83.93589763343334 " fill="rgb(54,235,134)" stroke="rgb(54,235,134)" stroke-width="2" /><path d="M +189.8315449138172,83.93589763343334 L 190.24827108578756,80.74445180594921 " fill="rgb(54,235,134)" stroke="rgb(54,235,134)" stroke-width="2" /><path d="M +190.24827108578756,80.74445180594921 L 190.7525586267002,78.05929689109325 " fill="rgb(54,235,134)" stroke="rgb(54,235,134)" stroke-width="2" /><path d="M +190.7525586267002,78.05929689109325 L 191.6389898438938,75.6816530674696 " fill="rgb(54,235,134)" stroke="rgb(54,235,134)" stroke-width="2" /><path d="M +191.6389898438938,75.6816530674696 L 192.4440097589977,73.65760020911694 " fill="rgb(54,235,134)" stroke="rgb(54,235,134)" stroke-width="2" /><path d="M +192.4440097589977,73.65760020911694 L 193.27278373437002,72.43263582885265 " fill="rgb(54,235,134)" stroke="rgb(54,235,134)" stroke-width="2" /><path d="M +193.27278373437002,72.43263582885265 L 193.27649012487382,71.40966658294201 " fill="rgb(54,235,134)" stroke="rgb(54,235,134)" stroke-width="2" /><path d="M +193.27649012487382,71.40966658294201 L 194.01331839244813,71.50616455823183 " fill="rgb(54,235,134)" stroke="rgb(54,235,134)" stroke-width="2" /><path d="M +194.01331839244813,71.50616455823183 L 193.68477294128388,70.93886119872332 " fill="rgb(54,235,134)" stroke="rgb(54,235,134)" stroke-width="2" /><path d="M +193.68477294128388,70.93886119872332 L 194.15901330392808,71.28681711107492 " fill="rgb(54,235,134)" stroke="rgb(54,235,134)" stroke-width="2" /><path d="M +194.15901330392808,71.28681711107492 L 194.43575296085328,71.60475797206163 " fill="rgb(54,235,134)" stroke="rgb(54,235,134)" stroke-width="2" /><path d="M +194.43575296085328,71.60475797206163 L 194.68503882270306,72.58569825440645 " fill="rgb(54,235,134)" stroke="rgb(54,235,134)" stroke-width="2" /><path d="M +194.68503882270306,72.58569825440645 L 194.86454969923943,73.76493931561708 " fill="rgb(54,235,134)" stroke="rgb(54,235,134)" stroke-width="2" /><path d="M +194.86454969923943,73.76493931561708 L 195.4106482891366,76.23496080189943 " fill="rgb(54,235,134)" stroke="rgb(54,235,134)" stroke-width="2" /><path d="M +195.4106482891366,76.23496080189943 L 196.0808559684083,79.25244093686342 " fill="rgb(54,235,134)" stroke="rgb(54,235,134)" stroke-width="2" /><path d="M +196.0808559684083,79.25244093686342 L 195.94802405219525,81.58941722661257 " fill="rgb(54,235,134)" stroke="rgb(54,235,134)" stroke-width="2" /><path d="M +195.94802405219525,81.58941722661257 L 196.1269918559119,84.95341873914003 " fill="rgb(54,235,134)" stroke="rgb(54,235,134)" stroke-width="2" /><path d="M +196.1269918559119,84.95341873914003 L 195.99371183197945,87.9465489462018 " fill="rgb(54,235,134)" stroke="rgb(54,235,134)" stroke-width="2" /><path d="M +195.99371183197945,87.9465489462018 L 196.02376487571746,91.01818347722292 " fill="rgb(54,235,134)" stroke="rgb(54,235,134)" stroke-width="2" /><path d="M +196.02376487571746,91.01818347722292 L 195.96867081616074,93.27914620190859 " fill="rgb(54,235,134)" stroke="rgb(54,235,134)" stroke-width="2" /><path d="M +195.96867081616074,93.27914620190859 L 196.50739929173142,95.94480396062136 " fill="rgb(54,235,134)" stroke="rgb(54,235,134)" stroke-width="2" /><path d="M 217.1899916836992,85.40447593480349 " fill="rgb(49,131,56)" stroke="rgb(49,131,56)" stroke-width="2" /><path d="M +217.1899916836992,85.40447593480349 L 216.7695284197107,83.77574432641268 " fill="rgb(49,131,56)" stroke="rgb(49,131,56)" stroke-width="2" /><path d="M +216.7695284197107,83.77574432641268 L 215.94275966379791,82.09337294846773 " fill="rgb(49,131,56)" stroke="rgb(49,131,56)" stroke-width="2" /><path d="M +215.94275966379791,82.09337294846773 L 215.06318083498627,81.76470658928156 " fill="rgb(49,131,56)" stroke="rgb(49,131,56)" stroke-width="2" /><path d="M +215.06318083498627,81.76470658928156 L 213.27545073721558,82.18302506953478 " fill="rgb(49,131,56)" stroke="rgb(49,131,56)" stroke-width="2" /><path d="M +213.27545073721558,82.18302506953478 L 211.29011300299317,83.42752892524004 " fill="rgb(49,131,56)" stroke="rgb(49,131,56)" stroke-width="2" /><path d="M +211.29011300299317,83.42752892524004 L 209.64245930407196,84.8051567748189 " fill="rgb(49,131,56)" stroke="rgb(49,131,56)" stroke-width="2" /><path d="M +209.64245930407196,84.8051567748189 L 208.54709401819855,86.56823606044054 " fill="rgb(49,131,56)" stroke="rgb(49,131,56)" stroke-width="2" /><path d="M +208.54709401819855,86.56823606044054 L 207.99226364586502,88.27634090930223 " fill="rgb(49,131,56)" stroke="rgb(49,131,56)" stroke-width="2" /><path d="M +207.99226364586502,88.27634090930223 L 208.72840955946594,89.95381874591112 " fill="rgb(49,131,56)" stroke="rgb(49,131,56)" stroke-width="2" /><path d="M +208.72840955946594,89.95381874591112 L 210.04407504294068,90.88664311915636 " fill="rgb(49,131,56)" stroke="rgb(49,131,56)" stroke-width="2" /><path d="M +210.04407504294068,90.88664311915636 L 211.42901185248047,90.61064434796572 " fill="rgb(49,131,56)" stroke="rgb(49,131,56)" stroke-width="2" /><path d="M +211.42901185248047,90.61064434796572 L 213.63976362440735,89.73285264521837 " fill="rgb(49,131,56)" stroke="rgb(49,131,56)" stroke-width="2" /><path d="M +213.63976362440735,89.73285264521837 L 215.72443631384522,87.55894202739 " fill="rgb(49,131,56)" stroke="rgb(49,131,56)" stroke-width="2" /><path d="M +215.72443631384522,87.55894202739 L 218.25766733381897,84.33331341296434 " fill="rgb(49,131,56)" stroke="rgb(49,131,56)" stroke-width="2" /><path d="M +218.25766733381897,84.33331341296434 L 220.3072984525934,80.81137032061815 " fill="rgb(49,131,56)" stroke="rgb(49,131,56)" stroke-width="2" /><path d="M +220.3072984525934,80.81137032061815 L 221.4247263977304,76.20921654254198 " fill="rgb(49,131,56)" stroke="rgb(49,131,56)" stroke-width="2" /><path d="M +221.4247263977304,76.20921654254198 L 222.37894919607788,71.33950609713793 " fill="rgb(49,131,56)" stroke="rgb(49,131,56)" stroke-width="2" /><path d="M +222.37894919607788,71.33950609713793 L 223.34550193045288,67.12300676852465 " fill="rgb(49,131,56)" stroke="rgb(49,131,56)" stroke-width="2" /><path d="M +223.34550193045288,67.12300676852465 L 223.86588814947754,63.4837798550725 " fill="rgb(49,131,56)" stroke="rgb(49,131,56)" stroke-width="2" /><path d="M +223.86588814947754,63.4837798550725 L 224.0034793028608,60.41350645571947 " fill="rgb(49,131,56)" stroke="rgb(49,131,56)" stroke-width="2" /><path d="M +224.0034793028608,60.41350645571947 L 224.3594287345186,58.3738150075078 " fill="rgb(49,131,56)" stroke="rgb(49,131,56)" stroke-width="2" /><path d="M +224.3594287345186,58.3738150075078 L 224.26217576209456,56.78001505881548 " fill="rgb(49,131,56)" stroke="rgb(49,131,56)" stroke-width="2" /><path d="M +224.26217576209456,56.78001505881548 L 224.1695212284103,55.8796076849103 " fill="rgb(49,131,56)" stroke="rgb(49,131,56)" stroke-width="2" /><path d="M +224.1695212284103,55.8796076849103 L 224.39181213174015,55.60405642539263 " fill="rgb(49,131,56)" stroke="rgb(49,131,56)" stroke-width="2" /><path d="M +224.39181213174015,55.60405642539263 L 224.43230279628187,56.168457098305225 " fill="rgb(49,131,56)" stroke="rgb(49,131,56)" stroke-width="2" /><path d="M +224.43230279628187,56.168457098305225 L 225.26133372727782,58.697435922920704 " fill="rgb(49,131,56)" stroke="rgb(49,131,56)" stroke-width="2" /><path d="M +225.26133372727782,58.697435922920704 L 226.08347948733717,62.179364271461964 " fill="rgb(49,131,56)" stroke="rgb(49,131,56)" stroke-width="2" /><path d="M +226.08347948733717,62.179364271461964 L 226.97410871926695,66.31058556586504 " fill="rgb(49,131,56)" stroke="rgb(49,131,56)" stroke-width="2" /><path d="M +226.97410871926695,66.31058556586504 L 227.72795655671507,70.51701933890581 " fill="rgb(49,131,56)" stroke="rgb(49,131,56)" stroke-width="2" /><path d="M +227.72795655671507,70.51701933890581 L 228.86232855264097,74.84769780188799 " fill="rgb(49,131,56)" stroke="rgb(49,131,56)" stroke-width="2" /><path d="M +228.86232855264097,74.84769780188799 L 230.04074921552092,79.49444205313921 " fill="rgb(49,131,56)" stroke="rgb(49,131,56)" stroke-width="2" /><path d="M +230.04074921552092,79.49444205313921 L 231.02266629878432,83.81244618445635 " fill="rgb(49,131,56)" stroke="rgb(49,131,56)" stroke-width="2" /><path d="M +231.02266629878432,83.81244618445635 L 231.70039942208678,87.68046099692583 " fill="rgb(49,131,56)" stroke="rgb(49,131,56)" stroke-width="2" /><path d="M +231.70039942208678,87.68046099692583 L 231.97999613825232,90.70625478774309 " fill="rgb(49,131,56)" stroke="rgb(49,131,56)" stroke-width="2" /><path d="M +231.97999613825232,90.70625478774309 L 232.42078959289938,93.28672391921282 " fill="rgb(49,131,56)" stroke="rgb(49,131,56)" stroke-width="2" /><path d="M +232.42078959289938,93.28672391921282 L 233.31036185566336,95.66774971038103 " fill="rgb(49,131,56)" stroke="rgb(49,131,56)" stroke-width="2" /><path d="M +233.31036185566336,95.66774971038103 L 233.71506076399237,96.88861913233995 " fill="rgb(49,131,56)" stroke="rgb(49,131,56)" stroke-width="2" /><path d="M +233.71506076399237,96.88861913233995 L 234.46078097168356,97.54049218446016 " fill="rgb(49,131,56)" stroke="rgb(49,131,56)" stroke-width="2" /><path d="M +234.46078097168356,97.54049218446016 L 234.98138444963843,97.2650913670659 " fill="rgb(49,131,56)" stroke="rgb(49,131,56)" stroke-width="2" /><path d="M +234.98138444963843,97.2650913670659 L 235.31281098071486,95.36586625128984 " fill="rgb(49,131,56)" stroke="rgb(49,131,56)" stroke-width="2" /><path d="M +235.31281098071486,95.36586625128984 L 236.24956484977156,93.44977266341448 " fill="rgb(49,131,56)" stroke="rgb(49,131,56)" stroke-width="2" /><path d="M +236.24956484977156,93.44977266341448 L 236.93879934493452,90.47932011634111 " fill="rgb(49,131,56)" stroke="rgb(49,131,56)" stroke-width="2" /><path d="M +236.93879934493452,90.47932011634111 L 238.33667191211134,87.31520683318377 " fill="rgb(49,131,56)" stroke="rgb(49,131,56)" stroke-width="2" /><path d="M +238.33667191211134,87.31520683318377 L 239.2542902464047,83.27235490828753 " fill="rgb(49,131,56)" stroke="rgb(49,131,56)" stroke-width="2" /><path d="M +239.2542902464047,83.27235490828753 L 241.04946222249418,79.83283717185259 " fill="rgb(49,131,56)" stroke="rgb(49,131,56)" stroke-width="2" /><path d="M +241.04946222249418,79.83283717185259 L 241.3352867597714,75.51665837317705 " fill="rgb(49,131,56)" stroke="rgb(49,131,56)" stroke-width="2" /><path d="M +241.3352867597714,75.51665837317705 L 242.3771376842633,72.01049596816301 " fill="rgb(49,131,56)" stroke="rgb(49,131,56)" stroke-width="2" /><path d="M +242.3771376842633,72.01049596816301 L 242.60248685721308,68.65198738127947 " fill="rgb(49,131,56)" stroke="rgb(49,131,56)" stroke-width="2" /><path d="M +242.60248685721308,68.65198738127947 L 242.3267718339339,65.22416550666094 " fill="rgb(49,131,56)" stroke="rgb(49,131,56)" stroke-width="2" /><path d="M +242.3267718339339,65.22416550666094 L 241.5445754909888,61.822013922035694 " fill="rgb(49,131,56)" stroke="rgb(49,131,56)" stroke-width="2" /><path d="M +241.5445754909888,61.822013922035694 L 240.93071393016726,58.65700227767229 " fill="rgb(49,131,56)" stroke="rgb(49,131,56)" stroke-width="2" /><path d="M +240.93071393016726,58.65700227767229 L 239.80303744319826,55.190994806587696 " fill="rgb(49,131,56)" stroke="rgb(49,131,56)" stroke-width="2" /><path d="M +239.80303744319826,55.190994806587696 L 239.45315752271563,52.75058776885271 " fill="rgb(49,131,56)" stroke="rgb(49,131,56)" stroke-width="2" /><path d="M +239.45315752271563,52.75058776885271 L 237.6419664407149,49.75012833625078 " fill="rgb(49,131,56)" stroke="rgb(49,131,56)" stroke-width="2" /><path d="M +237.6419664407149,49.75012833625078 L 236.69826743844897,47.30962807685137 " fill="rgb(49,131,56)" stroke="rgb(49,131,56)" stroke-width="2" /><path d="M +236.69826743844897,47.30962807685137 L 236.59497889969498,45.21756822615862 " fill="rgb(49,131,56)" stroke="rgb(49,131,56)" stroke-width="2" /><path d="M +236.59497889969498,45.21756822615862 L 237.3076130459085,43.964859671890736 " fill="rgb(49,131,56)" stroke="rgb(49,131,56)" stroke-width="2" /><path d="M +237.3076130459085,43.964859671890736 L 238.03244051430374,42.62987644225359 " fill="rgb(49,131,56)" stroke="rgb(49,131,56)" stroke-width="2" /><path d="M +238.03244051430374,42.62987644225359 L 239.5425704428926,41.370034880936146 " fill="rgb(49,131,56)" stroke="rgb(49,131,56)" stroke-width="2" /><path d="M +239.5425704428926,41.370034880936146 L 242.3963657328859,39.80302972346544 " fill="rgb(49,131,56)" stroke="rgb(49,131,56)" stroke-width="2" /><path d="M +242.3963657328859,39.80302972346544 L 245.7517250487581,38.84013582020998 " fill="rgb(49,131,56)" stroke="rgb(49,131,56)" stroke-width="2" /><path d="M +245.7517250487581,38.84013582020998 L 248.5952957579866,38.12526661902666 " fill="rgb(49,131,56)" stroke="rgb(49,131,56)" stroke-width="2" /><path d="M +248.5952957579866,38.12526661902666 L 250.5674112746492,37.82658661156893 " fill="rgb(49,131,56)" stroke="rgb(49,131,56)" stroke-width="2" /><path d="M +250.5674112746492,37.82658661156893 L 251.73666974995285,37.15109670907259 " fill="rgb(49,131,56)" stroke="rgb(49,131,56)" stroke-width="2" /><path d="M +251.73666974995285,37.15109670907259 L 252.0407054135576,36.96134851127863 " fill="rgb(49,131,56)" stroke="rgb(49,131,56)" stroke-width="2" /><path d="M +252.0407054135576,36.96134851127863 L 251.8391839871183,36.67430377751589 " fill="rgb(49,131,56)" stroke="rgb(49,131,56)" stroke-width="2" /><path d="M +251.8391839871183,36.67430377751589 L 250.5222314009443,36.31255296617746 " fill="rgb(49,131,56)" stroke="rgb(49,131,56)" stroke-width="2" /><path d="M +250.5222314009443,36.31255296617746 L 248.36637693736702,35.97931010276079 " fill="rgb(49,131,56)" stroke="rgb(49,131,56)" stroke-width="2" /><path d="M +248.36637693736702,35.97931010276079 L 245.25152331683785,35.54840809851885 " fill="rgb(49,131,56)" stroke="rgb(49,131,56)" stroke-width="2" /><path d="M +245.25152331683785,35.54840809851885 L 242.14793592784554,35.21724221855402 " fill="rgb(49,131,56)" stroke="rgb(49,131,56)" stroke-width="2" /><path d="M +242.14793592784554,35.21724221855402 L 238.6205492625013,34.49569670110941 " fill="rgb(49,131,56)" stroke="rgb(49,131,56)" stroke-width="2" /><path d="M +238.6205492625013,34.49569670110941 L 235.5839031348005,33.52731720358133 " fill="rgb(49,131,56)" stroke="rgb(49,131,56)" stroke-width="2" /><path d="M +235.5839031348005,33.52731720358133 L 233.52329307887703,33.0621278360486 " fill="rgb(49,131,56)" stroke="rgb(49,131,56)" stroke-width="2" /><path d="M +233.52329307887703,33.0621278360486 L 232.00106483791023,32.24145848304033 " fill="rgb(49,131,56)" stroke="rgb(49,131,56)" stroke-width="2" /><path d="M +232.00106483791023,32.24145848304033 L 231.6099492618814,31.70646310597658 " fill="rgb(49,131,56)" stroke="rgb(49,131,56)" stroke-width="2" /><path d="M +231.6099492618814,31.70646310597658 L 231.25821992848068,30.922043092548847 " fill="rgb(49,131,56)" stroke="rgb(49,131,56)" stroke-width="2" /><path d="M 244.80520364735276,25.74217677861452 " fill="rgb(35,162,135)" stroke="rgb(35,162,135)" stroke-width="2" /><path d="M +244.80520364735276,25.74217677861452 L 245.7789226481691,27.385383494198322 " fill="rgb(35,162,135)" stroke="rgb(35,162,135)" stroke-width="2" /><path d="M +245.7789226481691,27.385383494198322 L 246.16601953003556,29.53050411492586 " fill="rgb(35,162,135)" stroke="rgb(35,162,135)" stroke-width="2" /><path d="M +246.16601953003556,29.53050411492586 L 246.5402674684301,32.357541449368 " fill="rgb(35,162,135)" stroke="rgb(35,162,135)" stroke-width="2" /><path d="M +246.5402674684301,32.357541449368 L 247.323381007649,35.87445033341646 " fill="rgb(35,162,135)" stroke="rgb(35,162,135)" stroke-width="2" /><path d="M +247.323381007649,35.87445033341646 L 247.31303436215967,39.24942625313997 " fill="rgb(35,162,135)" stroke="rgb(35,162,135)" stroke-width="2" /><path d="M +247.31303436215967,39.24942625313997 L 248.21907729562372,42.64771497994661 " fill="rgb(35,162,135)" stroke="rgb(35,162,135)" stroke-width="2" /><path d="M +248.21907729562372,42.64771497994661 L 248.37172657903284,46.68351877480745 " fill="rgb(35,162,135)" stroke="rgb(35,162,135)" stroke-width="2" /><path d="M +248.37172657903284,46.68351877480745 L 249.35619539674371,51.49348820000887 " fill="rgb(35,162,135)" stroke="rgb(35,162,135)" stroke-width="2" /><path d="M +249.35619539674371,51.49348820000887 L 250.20658410247415,56.069164641201496 " fill="rgb(35,162,135)" stroke="rgb(35,162,135)" stroke-width="2" /><path d="M +250.20658410247415,56.069164641201496 L 251.19080293830484,59.43721354752779 " fill="rgb(35,162,135)" stroke="rgb(35,162,135)" stroke-width="2" /><path d="M +251.19080293830484,59.43721354752779 L 252.38238859828562,62.10540450364351 " fill="rgb(35,162,135)" stroke="rgb(35,162,135)" stroke-width="2" /><path d="M +252.38238859828562,62.10540450364351 L 253.99391031917185,64.17322958260775 " fill="rgb(35,162,135)" stroke="rgb(35,162,135)" stroke-width="2" /><path d="M +253.99391031917185,64.17322958260775 L 254.24847084935755,64.83376301079988 " fill="rgb(35,162,135)" stroke="rgb(35,162,135)" stroke-width="2" /><path d="M +254.24847084935755,64.83376301079988 L 254.30513448175043,64.80011934041977 " fill="rgb(35,162,135)" stroke="rgb(35,162,135)" stroke-width="2" /><path d="M +254.30513448175043,64.80011934041977 L 254.33829203154892,64.22061860561371 " fill="rgb(35,162,135)" stroke="rgb(35,162,135)" stroke-width="2" /><path d="M +254.33829203154892,64.22061860561371 L 254.37657869886607,62.60925281047821 " fill="rgb(35,162,135)" stroke="rgb(35,162,135)" stroke-width="2" /><path d="M +254.37657869886607,62.60925281047821 L 254.0105512244627,59.90995466709137 " fill="rgb(35,162,135)" stroke="rgb(35,162,135)" stroke-width="2" /><path d="M +254.0105512244627,59.90995466709137 L 253.7597989840433,56.219173312187195 " fill="rgb(35,162,135)" stroke="rgb(35,162,135)" stroke-width="2" /><path d="M +253.7597989840433,56.219173312187195 L 253.53990238439292,52.17196834087372 " fill="rgb(35,162,135)" stroke="rgb(35,162,135)" stroke-width="2" /><path d="M +253.53990238439292,52.17196834087372 L 253.17790987621993,47.74756038188934 " fill="rgb(35,162,135)" stroke="rgb(35,162,135)" stroke-width="2" /><path d="M +253.17790987621993,47.74756038188934 L 253.5842871023342,43.92151939868927 " fill="rgb(35,162,135)" stroke="rgb(35,162,135)" stroke-width="2" /><path d="M +253.5842871023342,43.92151939868927 L 254.20196812879294,39.84896147251129 " fill="rgb(35,162,135)" stroke="rgb(35,162,135)" stroke-width="2" /><path d="M +254.20196812879294,39.84896147251129 L 254.11631895881146,35.04945480823517 " fill="rgb(35,162,135)" stroke="rgb(35,162,135)" stroke-width="2" /><path d="M +254.11631895881146,35.04945480823517 L 255.53310348372906,30.96221172809601 " fill="rgb(35,162,135)" stroke="rgb(35,162,135)" stroke-width="2" /><path d="M +255.53310348372906,30.96221172809601 L 256.86253954749554,27.76073682308197 " fill="rgb(35,162,135)" stroke="rgb(35,162,135)" stroke-width="2" /><path d="M +256.86253954749554,27.76073682308197 L 258.3637825427577,25.838980078697205 " fill="rgb(35,162,135)" stroke="rgb(35,162,135)" stroke-width="2" /><path d="M +258.3637825427577,25.838980078697205 L 259.4607315240428,25.0 " fill="rgb(35,162,135)" stroke="rgb(35,162,135)" stroke-width="2" /><path d="M +259.4607315240428,25.0 L 260.35745759587735,25.297346860170364 " fill="rgb(35,162,135)" stroke="rgb(35,162,135)" stroke-width="2" /><path d="M +260.35745759587735,25.297346860170364 L 261.0177710233256,26.06682476401329 " fill="rgb(35,162,135)" stroke="rgb(35,162,135)" stroke-width="2" /><path d="M +261.0177710233256,26.06682476401329 L 261.8849342642352,27.764136284589767 " fill="rgb(35,162,135)" stroke="rgb(35,162,135)" stroke-width="2" /><path d="M +261.8849342642352,27.764136284589767 L 262.619552093558,29.998209208250046 " fill="rgb(35,162,135)" stroke="rgb(35,162,135)" stroke-width="2" /><path d="M +262.619552093558,29.998209208250046 L 263.7763679800555,32.29035684466362 " fill="rgb(35,162,135)" stroke="rgb(35,162,135)" stroke-width="2" /><path d="M +263.7763679800555,32.29035684466362 L 263.66917387675494,33.57230278849602 " fill="rgb(35,162,135)" stroke="rgb(35,162,135)" stroke-width="2" /><path d="M +263.66917387675494,33.57230278849602 L 263.97784910630435,34.964260667562485 " fill="rgb(35,162,135)" stroke="rgb(35,162,135)" stroke-width="2" /><path d="M +263.97784910630435,34.964260667562485 L 263.5525868041441,36.14778706431389 " fill="rgb(35,162,135)" stroke="rgb(35,162,135)" stroke-width="2" /><path d="M +263.5525868041441,36.14778706431389 L 263.7575246794149,37.899505227804184 " fill="rgb(35,162,135)" stroke="rgb(35,162,135)" stroke-width="2" /><path d="M +263.7575246794149,37.899505227804184 L 263.9487665994093,39.41664573550224 " fill="rgb(35,162,135)" stroke="rgb(35,162,135)" stroke-width="2" /><path d="M +263.9487665994093,39.41664573550224 L 263.7823637528345,40.6820168197155 " fill="rgb(35,162,135)" stroke="rgb(35,162,135)" stroke-width="2" /><path d="M +263.7823637528345,40.6820168197155 L 264.4593237442896,41.75292608141899 " fill="rgb(35,162,135)" stroke="rgb(35,162,135)" stroke-width="2" /></svg>