<?xml version="1.0" encoding="utf-8" ?>
<svg baseProfile="full" height="112.10000000000002" version="1.1" width="547.4999999999999" xmlns="http://www.w3.org/2000/svg" xmlns:ev="http://www.w3.org/2001/xml-events" xmlns:xlink="http://www.w3.org/1999/xlink"><defs /><rect fill="white" height="112.10000000000002" width="547.4999999999999" x="0" y="0" /><path d="M25,25 m21.3,25.3 l-0.7,-0.1 -0.1,0.3 l0.4,2.1 0.5,2.6 l0.1,3.7 -0.4,4.0 l-0.4,3.9 -0.2,4.1 l0.4,3.6 0.6,3.0 l0.6,1.7 0.2,0.5 m-12.3,-11.9 l0.0,0.0 1.8,0.3 l4.1,-0.4 5.5,0.5 l5.7,-1.2 4.9,-0.9 l3.6,-0.3 2.9,-0.4 m-2.4,-15.7 l0.0,0.0 0.5,0.9 l0.7,1.7 0.5,2.9 l-0.1,4.0 -0.4,4.4 l-0.3,4.8 0.3,3.7 l0.5,2.4 0.6,1.7 l0.8,1.0 1.1,-0.4 l1.8,-1.0 2.4,-3.0 l2.4,-2.1 1.8,-1.9 l1.1,-0.3 1.0,-0.2 l0.9,0.8 1.0,1.7 l1.5,2.1 2.5,1.8 l3.3,1.0 3.8,-0.2 l3.8,-0.7 3.2,-2.2 l2.7,-2.7 1.5,-3.6 l0.1,-3.2 -1.2,-2.5 l-2.2,-1.2 -2.6,-0.1 l-2.2,1.5 -1.4,2.8 l0.3,3.2 1.9,3.6 l3.6,3.4 4.4,2.9 l4.6,1.7 4.9,3.1 m58.3,-32.8 l-2.0,-0.5 -2.4,-0.4 l-2.9,-0.3 -3.4,-0.3 l-3.7,0.5 -4.1,1.7 l-3.3,2.8 -3.3,3.6 l-2.3,4.6 -0.9,4.9 l1.5,3.9 4.1,3.2 l5.7,2.2 6.3,1.3 l5.9,0.3 5.5,0.0 m25.1,-11.9 l-2.0,-2.8 -1.8,-0.9 l-2.5,0.2 -3.6,0.7 l-3.6,2.4 -2.1,3.3 l0.1,4.4 1.7,3.4 l2.5,0.7 4.0,1.3 l4.4,-0.5 4.1,-1.8 l3.1,-3.7 1.8,-3.7 l-0.3,-3.2 -2.0,-2.8 l-2.8,-1.4 -2.2,0.2 l-1.3,0.7 m20.6,-2.1 l0.3,-0.1 0.0,0.0 l0.1,0.4 0.1,1.7 l-0.5,1.8 -0.1,2.9 l-0.1,2.5 -0.1,1.7 l0.6,1.9 0.9,1.0 l1.2,0.5 1.3,-0.4 l1.6,-0.9 1.4,-2.9 l1.9,-2.6 1.7,-2.7 l1.5,-1.3 0.9,-0.2 l0.2,-0.1 0.6,1.1 l0.5,2.4 0.5,3.1 l0.8,3.1 1.1,2.2 l1.5,1.2 1.7,0.3 l1.9,-0.7 2.1,-1.9 m-0.6,-14.7 l-0.7,-0.6 0.2,0.4 l0.5,1.1 0.8,1.4 l1.0,2.2 0.5,1.9 l0.7,2.4 0.7,1.8 l0.8,1.0 1.1,0.5 l1.5,-0.5 1.9,-2.1 l2.2,-2.1 1.7,-2.3 l1.4,-1.4 0.7,-0.3 l0.2,-0.1 0.6,0.7 l0.5,1.4 0.9,2.7 l1.5,3.7 1.5,2.1 l2.1,1.3 2.1,0.4 m4.9,-5.9 l-0.2,-0.3 0.0,-0.4 l1.4,-0.2 2.3,-1.0 l3.0,-0.9 2.3,-1.5 l1.6,-2.0 1.6,-1.1 l0.1,-1.9 -0.3,-1.2 l-1.7,-1.0 -3.1,0.1 l-3.6,2.1 -3.3,3.1 l-2.0,3.5 -0.5,2.8 l1.5,2.4 3.2,2.2 l4.3,0.8 4.6,0.1 l4.6,-0.3 4.5,-1.2 l4.3,-1.6 3.4,-2.7 m4.9,-5.5 l0.1,-0.5 0.0,-0.5 l-0.6,-1.0 -1.3,-0.7 l-2.1,-0.2 -2.9,0.5 l-3.8,0.9 -2.9,2.0 l-2.0,2.2 -0.2,2.8 l1.8,3.2 3.0,2.1 l4.0,1.2 5.0,0.6 l5.2,-0.3 5.1,-0.9 l4.3,-2.4 3.4,-2.8 l1.9,-3.8 m0.0,-20.3 l-0.5,-1.0 0.3,0.3 l0.0,1.8 -0.2,3.5 l-1.2,3.8 -0.5,4.9 l-0.3,4.3 0.8,3.7 l0.8,2.7 1.0,1.9 l1.1,1.2 m-12.4,-8.7 l-0.4,-0.8 0.9,-0.4 l2.7,-1.1 4.3,-0.6 l4.9,-0.5 4.5,-0.3 l4.4,-0.2 3.5,-0.3 l2.8,-0.8 1.2,-0.3 l0.0,0.0 -0.1,0.2 l-0.4,0.2 -0.5,1.2 l-0.6,1.7 -0.2,2.1 l0.6,2.5 1.0,2.1 l0.6,1.1 0.9,0.8 l0.8,0.4 0.3,-0.5 l0.6,-1.3 m-4.9,-21.2 l-0.2,-1.2 0.1,-0.1 l0.8,0.0 m25.6,15.6 l-0.1,0.1 0.0,-0.4 l-0.3,-0.8 -1.6,-1.3 l-2.4,-0.8 -3.3,-0.2 l-3.0,1.0 -2.2,1.4 l-1.2,2.3 0.3,2.6 l2.4,2.8 2.7,1.0 l5.0,2.2 4.8,0.5 l5.1,0.0 4.8,-0.4 l3.2,-1.3 1.6,-2.1 l0.7,-2.0 -0.6,-2.5 m-2.7,-8.4 l-0.1,0.0 -0.1,1.1 l0.0,2.0 -0.1,3.1 l-0.1,2.9 0.6,3.0 l1.0,2.4 1.2,1.4 l1.8,1.3 1.9,0.1 l2.1,-1.1 2.5,-2.2 l1.4,-3.6 1.5,-2.6 l0.6,-2.0 0.1,-1.1 l-0.1,0.1 0.2,0.4 l-0.5,2.3 -0.2,3.2 l0.5,3.5 1.9,3.2 l2.5,2.1 2.0,0.0 l3.0,-0.2 2.8,-2.2 m6.2,-29.1 l-0.7,-0.5 0.3,0.7 l-0.1,2.2 0.2,3.5 l0.2,4.1 0.2,4.4 l-0.2,4.4 0.7,4.5 l0.2,2.9 0.4,2.3 l0.0,0.9 0.2,0.4 m-9.6,-9.7 l0.8,-0.1 1.8,-1.0 l4.1,-0.7 5.4,-0.3 l4.6,-0.7 4.6,0.8 l3.7,0.6 m44.2,-19.1 l0.8,-1.3 0.1,-1.3 l-0.4,-1.2 -0.8,-1.6 l-1.6,-1.3 -1.7,-0.4 l-2.0,0.3 -1.9,1.8 l-1.7,3.1 -1.1,5.0 l-0.8,5.8 -0.5,5.9 l-0.4,6.1 0.4,6.2 l0.3,5.6 1.0,5.0 l1.5,4.1 1.0,2.4 l0.7,0.8 -0.1,-0.3 m-14.3,-19.5 l-0.1,-0.5 1.4,0.5 l1.4,0.2 3.6,0.6 l4.4,0.3 5.0,-0.3 l5.0,0.2 4.8,-0.8 l4.9,-0.7 4.6,-1.3 l3.9,-1.6 1.9,-1.4 l0.3,-0.9 -1.2,-1.1 l-2.3,-1.1 -2.6,-0.2 l-2.7,0.6 -2.3,1.2 l-1.9,1.8 -1.9,2.3 l-0.6,2.9 0.8,2.6 l1.9,2.1 3.1,0.9 l3.7,0.2 3.1,-1.2 l1.7,-1.7 0.5,-2.3 l-0.3,-1.9 -0.1,-1.1 l-0.2,-0.3 0.1,-0.1 l0.5,0.6 1.2,1.6 l1.8,1.6 2.0,0.7 m7.9,-33.0 l-0.2,0.1 0.4,1.3 l0.4,2.7 0.6,3.6 l0.1,3.9 -0.6,4.3 l-0.3,5.0 0.3,4.4 l1.0,3.6 1.3,2.7 l1.3,1.5 1.1,0.6 m2.4,-24.6 l0.0,-1.7 -0.4,-0.9 l0.4,0.2 -0.2,0.3 l0.4,2.6 0.2,3.9 l0.2,4.6 0.4,4.8 l1.2,4.8 2.1,4.1 l2.1,3.0 2.3,2.2 m9.6,-6.9 l-0.2,0.3 -0.3,-0.3 l0.6,0.5 -0.3,-0.2 " fill="none" stroke="black" stroke-width="1" /></svg>